<svg xmlns="http://www.w3.org/2000/svg" xmlns:xlink="http://www.w3.org/1999/xlink" xmlns:s="https://github.com/nturley/netlistsvg" width="811" height="554">
  <style>svg {
    stroke:#000;
    fill:none;
  }
  text {
    fill:#000;
    stroke:none;
    font-size:10px;
    font-weight: bold;
    font-family: "Courier New", monospace;
  }
  .nodelabel {
    text-anchor: middle;
  }
  .inputPortLabel {
    text-anchor: end;
  }
  .splitjoinBody {
    fill:#000;
  }</style>
  <g s:type="and" transform="translate(262,196.5)" s:width="30" s:height="25" id="cell_$logic_and$ram.v:15$7">
    <s:alias val="$and"/>
    <s:alias val="$logic_and"/>
    <s:alias val="$_AND_"/>
    <path d="M0,0 L0,25 L15,25 A15 12.5 0 0 0 15,0 Z" class="cell_$logic_and$ram.v:15$7"/>
    <g s:x="0" s:y="5" s:pid="A"/>
    <g s:x="0" s:y="20" s:pid="B"/>
    <g s:x="30" s:y="12.5" s:pid="Y"/>
  </g>
  <g s:type="and" transform="translate(522.3333333333333,506)" s:width="30" s:height="25" id="cell_$logic_and$ram.v:19$12">
    <s:alias val="$and"/>
    <s:alias val="$logic_and"/>
    <s:alias val="$_AND_"/>
    <path d="M0,0 L0,25 L15,25 A15 12.5 0 0 0 15,0 Z" class="cell_$logic_and$ram.v:19$12"/>
    <g s:x="0" s:y="5" s:pid="A"/>
    <g s:x="0" s:y="20" s:pid="B"/>
    <g s:x="30" s:y="12.5" s:pid="Y"/>
  </g>
  <g s:type="not" transform="translate(176,206.5)" s:width="30" s:height="20" id="cell_$logic_not$ram.v:15$6">
    <s:alias val="$_NOT_"/>
    <s:alias val="$not"/>
    <s:alias val="$logic_not"/>
    <path d="M0,0 L0,20 L20,10 Z" class="cell_$logic_not$ram.v:15$6"/>
    <circle cx="23" cy="10" r="3" class="cell_$logic_not$ram.v:15$6"/>
    <g s:x="0" s:y="10" s:pid="A"/>
    <g s:x="25" s:y="10" s:pid="Y"/>
  </g>
  <g s:type="not" transform="translate(409,522)" s:width="30" s:height="20" id="cell_$logic_not$ram.v:19$11">
    <s:alias val="$_NOT_"/>
    <s:alias val="$not"/>
    <s:alias val="$logic_not"/>
    <path d="M0,0 L0,20 L20,10 Z" class="cell_$logic_not$ram.v:19$11"/>
    <circle cx="23" cy="10" r="3" class="cell_$logic_not$ram.v:19$11"/>
    <g s:x="0" s:y="10" s:pid="A"/>
    <g s:x="25" s:y="10" s:pid="Y"/>
  </g>
  <g s:type="dff" transform="translate(686,48)" s:width="30" s:height="40" id="cell_$procdff$25">
    <s:alias val="$dff"/>
    <s:alias val="$_DFF_"/>
    <s:alias val="$_DFF_P_"/>
    <rect width="30" height="40" x="0" y="0" class="cell_$procdff$25"/>
    <path d="M0,35 L5,30 L0,25" class="cell_$procdff$25"/>
    <g s:x="30" s:y="10" s:pid="Q"/>
    <g s:x="0" s:y="30" s:pid="CLK"/>
    <g s:x="0" s:y="30" s:pid="C"/>
    <g s:x="0" s:y="10" s:pid="D"/>
  </g>
  <g s:type="mux" transform="translate(339.33333333333337,299)" s:width="20" s:height="40" id="cell_$procmux$15">
    <s:alias val="$pmux"/>
    <s:alias val="$mux"/>
    <s:alias val="$_MUX_"/>
    <path d="M0,0 L20,10 L20,30 L0,40 Z" class="cell_$procmux$15"/>
    <g s:x="0" s:y="10" s:pid="A"/>
    <g s:x="0" s:y="30" s:pid="B"/>
    <g s:x="10" s:y="35" s:pid="S"/>
    <g s:x="20" s:y="20" s:pid="Y"/>
  </g>
  <g s:type="mux" transform="translate(414,219)" s:width="20" s:height="40" id="cell_$procmux$18">
    <s:alias val="$pmux"/>
    <s:alias val="$mux"/>
    <s:alias val="$_MUX_"/>
    <path d="M0,0 L20,10 L20,30 L0,40 Z" class="cell_$procmux$18"/>
    <g s:x="0" s:y="10" s:pid="A"/>
    <g s:x="0" s:y="30" s:pid="B"/>
    <g s:x="10" s:y="35" s:pid="S"/>
    <g s:x="20" s:y="20" s:pid="Y"/>
  </g>
  <g s:type="mux" transform="translate(414,159)" s:width="20" s:height="40" id="cell_$procmux$21">
    <s:alias val="$pmux"/>
    <s:alias val="$mux"/>
    <s:alias val="$_MUX_"/>
    <path d="M0,0 L20,10 L20,30 L0,40 Z" class="cell_$procmux$21"/>
    <g s:x="0" s:y="10" s:pid="A"/>
    <g s:x="0" s:y="30" s:pid="B"/>
    <g s:x="10" s:y="35" s:pid="S"/>
    <g s:x="20" s:y="20" s:pid="Y"/>
  </g>
  <g s:type="mux" transform="translate(631,38)" s:width="20" s:height="40" id="cell_$procmux$23">
    <s:alias val="$pmux"/>
    <s:alias val="$mux"/>
    <s:alias val="$_MUX_"/>
    <path d="M0,0 L20,10 L20,30 L0,40 Z" class="cell_$procmux$23"/>
    <g s:x="0" s:y="10" s:pid="A"/>
    <g s:x="0" s:y="30" s:pid="B"/>
    <g s:x="10" s:y="35" s:pid="S"/>
    <g s:x="20" s:y="20" s:pid="Y"/>
  </g>
  <g s:type="generic" transform="translate(522,57.5)" s:width="30" s:height="40" id="cell_mem">
    <text x="15" y="-4" class="nodelabel cell_mem" s:attribute="ref">$mem_v2</text>
    <rect width="30" height="180" s:generic="body" class="cell_mem"/>
    <g transform="translate(0,10)" s:x="0" s:y="10" s:pid="in0" id="port_mem~RD_ADDR">
      <text x="-3" y="-4" class="inputPortLabel cell_mem">RD_ADDR</text>
    </g>
    <g transform="translate(0,30)" s:x="0" s:y="10" s:pid="in0" id="port_mem~RD_ARST">
      <text x="-3" y="-4" class="inputPortLabel cell_mem">RD_ARST</text>
    </g>
    <g transform="translate(0,50)" s:x="0" s:y="10" s:pid="in0" id="port_mem~RD_CLK">
      <text x="-3" y="-4" class="inputPortLabel cell_mem">RD_CLK</text>
    </g>
    <g transform="translate(0,70)" s:x="0" s:y="10" s:pid="in0" id="port_mem~RD_EN">
      <text x="-3" y="-4" class="inputPortLabel cell_mem">RD_EN</text>
    </g>
    <g transform="translate(0,90)" s:x="0" s:y="10" s:pid="in0" id="port_mem~RD_SRST">
      <text x="-3" y="-4" class="inputPortLabel cell_mem">RD_SRST</text>
    </g>
    <g transform="translate(0,110)" s:x="0" s:y="10" s:pid="in0" id="port_mem~WR_ADDR">
      <text x="-3" y="-4" class="inputPortLabel cell_mem">WR_ADDR</text>
    </g>
    <g transform="translate(0,130)" s:x="0" s:y="10" s:pid="in0" id="port_mem~WR_CLK">
      <text x="-3" y="-4" class="inputPortLabel cell_mem">WR_CLK</text>
    </g>
    <g transform="translate(0,150)" s:x="0" s:y="10" s:pid="in0" id="port_mem~WR_DATA">
      <text x="-3" y="-4" class="inputPortLabel cell_mem">WR_DATA</text>
    </g>
    <g transform="translate(0,170)" s:x="0" s:y="10" s:pid="in0" id="port_mem~WR_EN">
      <text x="-3" y="-4" class="inputPortLabel cell_mem">WR_EN</text>
    </g>
    <g transform="translate(30,10)" s:x="30" s:y="10" s:pid="out0" id="port_mem~RD_DATA">
      <text x="5" y="-4" style="fill:#000; stroke:none" class="cell_mem">RD_DATA</text>
    </g>
  </g>
  <g s:type="inputExt" transform="translate(409,289)" s:width="30" s:height="20" id="cell_clk">
    <text x="15" y="-4" class="nodelabel cell_clk" s:attribute="ref">clk</text>
    <s:alias val="$_inputExt_"/>
    <path d="M0,0 L0,20 L15,20 L30,10 L15,0 Z" class="cell_clk"/>
    <g s:x="28" s:y="10" s:pid="Y"/>
  </g>
  <g s:type="inputExt" transform="translate(155,271.5)" s:width="30" s:height="20" id="cell_write_enable">
    <text x="15" y="-4" class="nodelabel cell_write_enable" s:attribute="ref">write_enable</text>
    <s:alias val="$_inputExt_"/>
    <path d="M0,0 L0,20 L15,20 L30,10 L15,0 Z" class="cell_write_enable"/>
    <g s:x="28" s:y="10" s:pid="Y"/>
  </g>
  <g s:type="inputExt" transform="translate(84,206.5)" s:width="30" s:height="20" id="cell_enable">
    <text x="15" y="-4" class="nodelabel cell_enable" s:attribute="ref">enable</text>
    <s:alias val="$_inputExt_"/>
    <path d="M0,0 L0,20 L15,20 L30,10 L15,0 Z" class="cell_enable"/>
    <g s:x="28" s:y="10" s:pid="Y"/>
  </g>
  <g s:type="inputExt" transform="translate(332,118)" s:width="30" s:height="20" id="cell_addr">
    <text x="15" y="-4" class="nodelabel cell_addr" s:attribute="ref">addr</text>
    <s:alias val="$_inputExt_"/>
    <path d="M0,0 L0,20 L15,20 L30,10 L15,0 Z" class="cell_addr"/>
    <g s:x="28" s:y="10" s:pid="Y"/>
  </g>
  <g s:type="inputExt" transform="translate(332,239)" s:width="30" s:height="20" id="cell_data_in">
    <text x="15" y="-4" class="nodelabel cell_data_in" s:attribute="ref">data_in</text>
    <s:alias val="$_inputExt_"/>
    <path d="M0,0 L0,20 L15,20 L30,10 L15,0 Z" class="cell_data_in"/>
    <g s:x="28" s:y="10" s:pid="Y"/>
  </g>
  <g s:type="outputExt" transform="translate(751,48)" s:width="30" s:height="20" id="cell_data_out">
    <text x="15" y="-4" class="nodelabel cell_data_out" s:attribute="ref">data_out</text>
    <s:alias val="$_outputExt_"/>
    <path d="M30,0 L30,20 L15,20 L0,10 L15,0 Z" class="cell_data_out"/>
    <g s:x="0" s:y="10" s:pid="A"/>
  </g>
  <g s:type="constant" transform="translate(262,22)" s:width="30" s:height="20" id="cell_0">
    <text x="15" y="-4" class="nodelabel cell_0" s:attribute="ref">0</text>
    <s:alias val="$_constant_"/>
    <rect width="30" height="20" class="cell_0"/>
    <g s:x="30" s:y="10" s:pid="Y"/>
  </g>
  <g s:type="constant" transform="translate(262,87)" s:width="30" s:height="20" id="cell_1">
    <text x="15" y="-4" class="nodelabel cell_1" s:attribute="ref">1</text>
    <s:alias val="$_constant_"/>
    <rect width="30" height="20" class="cell_1"/>
    <g s:x="30" s:y="10" s:pid="Y"/>
  </g>
  <g s:type="join" transform="translate(66,12)" s:width="4" s:height="40" id="cell_$join$,x,x,x,x,x,x,x,x,">
    <rect width="5" height="40" class="splitjoinBody" s:generic="body"/>
    <s:alias val="$_join_"/>
    <g s:x="5" s:y="20" s:pid="out"/>
    <g transform="translate(0,10)" s:x="0" s:y="10" s:pid="in0">
      <text x="-3" y="-4" class="inputPortLabel">0:3</text>
    </g>
  </g>
  <g s:type="join" transform="translate(412.7142857142857,331)" s:width="4" s:height="40" id="cell_$join$,37,37,37,37,37,37,37,37,">
    <rect width="5" height="160" class="splitjoinBody" s:generic="body"/>
    <s:alias val="$_join_"/>
    <g s:x="5" s:y="20" s:pid="out"/>
    <g transform="translate(0,10)" s:x="0" s:y="10" s:pid="in0">
      <text x="-3" y="-4" class="inputPortLabel">0</text>
    </g>
    <g transform="translate(0,30)" s:x="0" s:y="10" s:pid="in0">
      <text x="-3" y="-4" class="inputPortLabel">1</text>
    </g>
    <g transform="translate(0,50)" s:x="0" s:y="10" s:pid="in0">
      <text x="-3" y="-4" class="inputPortLabel">2</text>
    </g>
    <g transform="translate(0,70)" s:x="0" s:y="10" s:pid="in0">
      <text x="-3" y="-4" class="inputPortLabel">3</text>
    </g>
    <g transform="translate(0,90)" s:x="0" s:y="10" s:pid="in0">
      <text x="-3" y="-4" class="inputPortLabel">4</text>
    </g>
    <g transform="translate(0,110)" s:x="0" s:y="10" s:pid="in0">
      <text x="-3" y="-4" class="inputPortLabel">5</text>
    </g>
    <g transform="translate(0,130)" s:x="0" s:y="10" s:pid="in0">
      <text x="-3" y="-4" class="inputPortLabel">6</text>
    </g>
    <g transform="translate(0,150)" s:x="0" s:y="10" s:pid="in0">
      <text x="-3" y="-4" class="inputPortLabel">7</text>
    </g>
  </g>
  <g s:type="split" transform="translate(57,87)" s:width="5" s:height="40" id="cell_$split$,x,x,x,x,">
    <rect width="5" height="20" class="splitjoinBody" s:generic="body"/>
    <s:alias val="$_split_"/>
    <g s:x="0" s:y="20" s:pid="in"/>
    <g transform="translate(4,10)" s:x="4" s:y="10" s:pid="out0">
      <text x="5" y="-4">0</text>
    </g>
  </g>
  <line x1="183" x2="237" y1="281.5" y2="281.5" class="net_3"/>
  <line x1="237" x2="237" y1="281.5" y2="201.5" class="net_3"/>
  <circle cx="237" cy="281.5" r="2" style="fill:#000" class="net_3"/>
  <line x1="237" x2="262" y1="201.5" y2="201.5" class="net_3"/>
  <line x1="183" x2="237" y1="281.5" y2="281.5" class="net_3"/>
  <line x1="237" x2="237" y1="281.5" y2="532" class="net_3"/>
  <line x1="237" x2="409" y1="532" y2="532" class="net_3"/>
  <line x1="201" x2="262" y1="216.5" y2="216.5" class="net_25"/>
  <line x1="112" x2="130" y1="216.5" y2="216.5" class="net_4"/>
  <line x1="130" x2="130" y1="216.5" y2="511" class="net_4"/>
  <circle cx="130" cy="216.5" r="2" style="fill:#000" class="net_4"/>
  <line x1="130" x2="522.3333333333333" y1="511" y2="511" class="net_4"/>
  <line x1="112" x2="176" y1="216.5" y2="216.5" class="net_4"/>
  <line x1="434" x2="449" y1="532" y2="532" class="net_27"/>
  <line x1="449" x2="449" y1="532" y2="526" class="net_27"/>
  <line x1="449" x2="522.3333333333333" y1="526" y2="526" class="net_27"/>
  <line x1="437" x2="661" y1="299" y2="299" class="net_2"/>
  <line x1="661" x2="661" y1="299" y2="78" class="net_2"/>
  <line x1="661" x2="686" y1="78" y2="78" class="net_2"/>
  <line x1="437" x2="459" y1="299" y2="299" class="net_2"/>
  <line x1="459" x2="459" y1="299" y2="188" class="net_2"/>
  <circle cx="459" cy="299" r="2" style="fill:#000" class="net_2"/>
  <line x1="459" x2="522" y1="188" y2="188" class="net_2"/>
  <line x1="651" x2="686" y1="58" y2="58" class="net_29,30,31,32,33,34,35,36"/>
  <line x1="292" x2="322" y1="32" y2="32" class="net_58"/>
  <line x1="322" x2="322" y1="32" y2="309" class="net_58"/>
  <circle cx="322" cy="32" r="2" style="fill:#000" class="net_58"/>
  <line x1="322" x2="339.33333333333337" y1="309" y2="309" class="net_58"/>
  <line x1="292" x2="449" y1="32" y2="32" class="net_58"/>
  <line x1="449" x2="449" y1="32" y2="88" class="net_58"/>
  <line x1="449" x2="522" y1="88" y2="88" class="net_58"/>
  <line x1="292" x2="322" y1="32" y2="32" class="net_58"/>
  <line x1="322" x2="322" y1="32" y2="148" class="net_58"/>
  <circle cx="322" cy="148" r="2" style="fill:#000" class="net_58"/>
  <line x1="322" x2="522" y1="148" y2="148" class="net_58"/>
  <line x1="292" x2="302" y1="97" y2="97" class="net_59"/>
  <line x1="302" x2="302" y1="97" y2="329" class="net_59"/>
  <circle cx="302" cy="97" r="2" style="fill:#000" class="net_59"/>
  <line x1="302" x2="339.33333333333337" y1="329" y2="329" class="net_59"/>
  <line x1="292" x2="449" y1="97" y2="97" class="net_59"/>
  <line x1="449" x2="449" y1="97" y2="128" class="net_59"/>
  <line x1="449" x2="522" y1="128" y2="128" class="net_59"/>
  <line x1="292" x2="312" y1="209" y2="209" class="net_26"/>
  <line x1="312" x2="312" y1="209" y2="349" class="net_26"/>
  <line x1="312" x2="349.33333333333337" y1="349" y2="349" class="net_26"/>
  <circle cx="312" cy="209" r="2" style="fill:#000" class="net_26"/>
  <line x1="349.33333333333337" x2="349.33333333333337" y1="349" y2="334" class="net_26"/>
  <line x1="292" x2="312" y1="209" y2="209" class="net_26"/>
  <line x1="312" x2="312" y1="209" y2="269" class="net_26"/>
  <line x1="312" x2="424" y1="269" y2="269" class="net_26"/>
  <circle cx="312" cy="269" r="2" style="fill:#000" class="net_26"/>
  <line x1="424" x2="424" y1="269" y2="254" class="net_26"/>
  <line x1="292" x2="424" y1="209" y2="209" class="net_26"/>
  <line x1="424" x2="424" y1="209" y2="194" class="net_26"/>
  <line x1="360" x2="414" y1="249" y2="249" class="net_9,10,11,12,13,14,15,16"/>
  <line x1="360" x2="384" y1="128" y2="128" class="net_5,6,7,8"/>
  <line x1="384" x2="384" y1="128" y2="189" class="net_5,6,7,8"/>
  <circle cx="384" cy="128" r="2" style="fill:#000" class="net_5,6,7,8"/>
  <line x1="384" x2="414" y1="189" y2="189" class="net_5,6,7,8"/>
  <line x1="360" x2="384" y1="128" y2="128" class="net_5,6,7,8"/>
  <line x1="384" x2="384" y1="128" y2="21" class="net_5,6,7,8"/>
  <line x1="384" x2="459" y1="21" y2="21" class="net_5,6,7,8"/>
  <line x1="459" x2="459" y1="21" y2="68" class="net_5,6,7,8"/>
  <line x1="459" x2="522" y1="68" y2="68" class="net_5,6,7,8"/>
  <line x1="716" x2="726" y1="58" y2="58" class="net_17,18,19,20,21,22,23,24"/>
  <line x1="726" x2="726" y1="58" y2="28" class="net_17,18,19,20,21,22,23,24"/>
  <line x1="726" x2="606" y1="28" y2="28" class="net_17,18,19,20,21,22,23,24"/>
  <line x1="606" x2="606" y1="28" y2="48" class="net_17,18,19,20,21,22,23,24"/>
  <circle cx="726" cy="58" r="2" style="fill:#000" class="net_17,18,19,20,21,22,23,24"/>
  <line x1="606" x2="631" y1="48" y2="48" class="net_17,18,19,20,21,22,23,24"/>
  <line x1="716" x2="751" y1="58" y2="58" class="net_17,18,19,20,21,22,23,24"/>
  <line x1="553" x2="631" y1="68" y2="68" class="net_50,51,52,53,54,55,56,57"/>
  <line x1="552.3333333333333" x2="641" y1="518.5" y2="518.5" class="net_28"/>
  <line x1="641" x2="641" y1="518.5" y2="73" class="net_28"/>
  <line x1="434" x2="449" y1="179" y2="179" class="net_46,47,48,49"/>
  <line x1="449" x2="449" y1="179" y2="168" class="net_46,47,48,49"/>
  <line x1="449" x2="522" y1="168" y2="168" class="net_46,47,48,49"/>
  <line x1="434" x2="449" y1="239" y2="239" class="net_38,39,40,41,42,43,44,45"/>
  <line x1="449" x2="449" y1="239" y2="208" class="net_38,39,40,41,42,43,44,45"/>
  <line x1="449" x2="522" y1="208" y2="208" class="net_38,39,40,41,42,43,44,45"/>
  <line x1="418.7142857142857" x2="469" y1="351.5" y2="351.5" class="net_37,37,37,37,37,37,37,37"/>
  <line x1="469" x2="469" y1="351.5" y2="228" class="net_37,37,37,37,37,37,37,37"/>
  <line x1="469" x2="522" y1="228" y2="228" class="net_37,37,37,37,37,37,37,37"/>
  <line x1="22" x2="66" y1="22.5" y2="22.5" class="net_NaN,NaN,NaN,NaN"/>
  <line x1="22" x2="22" y1="22.5" y2="120" class="net_NaN,NaN,NaN,NaN"/>
  <line x1="22" x2="57.5" y1="120" y2="120" class="net_NaN,NaN,NaN,NaN"/>
  <line x1="57.5" x2="57.5" y1="120" y2="108" class="net_NaN,NaN,NaN,NaN"/>
  <line x1="359.33333333333337" x2="413.2142857142857" y1="319" y2="319" class="net_37"/>
  <line x1="413.2142857142857" x2="413.2142857142857" y1="319" y2="341" class="net_37"/>
  <line x1="359.33333333333337" x2="384" y1="319" y2="319" class="net_37"/>
  <line x1="384" x2="384" y1="319" y2="361.5" class="net_37"/>
  <circle cx="384" cy="319" r="2" style="fill:#000" class="net_37"/>
  <circle cx="384" cy="361.5" r="2" style="fill:#000" class="net_37"/>
  <line x1="384" x2="412.7142857142857" y1="361.5" y2="361.5" class="net_37"/>
  <line x1="359.33333333333337" x2="384" y1="319" y2="319" class="net_37"/>
  <line x1="384" x2="384" y1="319" y2="381.5" class="net_37"/>
  <circle cx="384" cy="381.5" r="2" style="fill:#000" class="net_37"/>
  <line x1="384" x2="412.7142857142857" y1="381.5" y2="381.5" class="net_37"/>
  <line x1="359.33333333333337" x2="384" y1="319" y2="319" class="net_37"/>
  <line x1="384" x2="384" y1="319" y2="401.5" class="net_37"/>
  <circle cx="384" cy="401.5" r="2" style="fill:#000" class="net_37"/>
  <line x1="384" x2="412.7142857142857" y1="401.5" y2="401.5" class="net_37"/>
  <line x1="359.33333333333337" x2="384" y1="319" y2="319" class="net_37"/>
  <line x1="384" x2="384" y1="319" y2="421.5" class="net_37"/>
  <circle cx="384" cy="421.5" r="2" style="fill:#000" class="net_37"/>
  <line x1="384" x2="412.7142857142857" y1="421.5" y2="421.5" class="net_37"/>
  <line x1="359.33333333333337" x2="384" y1="319" y2="319" class="net_37"/>
  <line x1="384" x2="384" y1="319" y2="441.5" class="net_37"/>
  <circle cx="384" cy="441.5" r="2" style="fill:#000" class="net_37"/>
  <line x1="384" x2="412.7142857142857" y1="441.5" y2="441.5" class="net_37"/>
  <line x1="359.33333333333337" x2="384" y1="319" y2="319" class="net_37"/>
  <line x1="384" x2="384" y1="319" y2="461.5" class="net_37"/>
  <circle cx="384" cy="461.5" r="2" style="fill:#000" class="net_37"/>
  <line x1="384" x2="412.7142857142857" y1="461.5" y2="461.5" class="net_37"/>
  <line x1="359.33333333333337" x2="384" y1="319" y2="319" class="net_37"/>
  <line x1="384" x2="384" y1="319" y2="501" class="net_37"/>
  <line x1="384" x2="413.2142857142857" y1="501" y2="501" class="net_37"/>
  <line x1="413.2142857142857" x2="413.2142857142857" y1="501" y2="482" class="net_37"/>
</svg>
